<svg width="41" height="49" viewBox="0 0 41 49" fill="none" xmlns="http://www.w3.org/2000/svg">
<path fill-rule="evenodd" clip-rule="evenodd" d="M9.64 0C11.2933 0 12.5733 0.173333 13.48 0.52C14.3867 0.839999 15.16 1.18667 15.8 1.56C16.12 1.74667 16.3733 1.89333 16.56 2C16.7733 2.08 16.9733 2.12 17.16 2.12C17.4267 2.12 17.6133 1.97333 17.72 1.68C17.8533 1.38667 17.96 0.946666 18.04 0.36H18.96C18.9333 0.893333 18.8933 1.52 18.84 2.24C18.8133 2.96 18.7867 3.92 18.76 5.12V9.8H17.84C17.7333 8.36 17.4 6.97333 16.84 5.64C16.28 4.30667 15.5067 3.2 14.52 2.32C13.56 1.44 12.3733 0.999999 10.96 0.999999C9.73333 0.999999 8.72 1.34667 7.92 2.04C7.12 2.70667 6.72 3.66667 6.72 4.92C6.72 5.93333 6.97333 6.81333 7.48 7.56C7.98667 8.28 8.74667 9.01333 9.76 9.76C10.8 10.5067 12.1067 11.4267 13.68 12.52C14.9333 13.3467 16.0533 14.1733 17.04 15C17.4722 15.3621 17.8659 15.7446 18.2213 16.1476C17.7178 16.1751 17.164 16.2025 16.56 16.23C15.9 16.26 15.21 16.275 14.49 16.275C13.8 16.275 13.095 16.26 12.375 16.23C11.655 16.2 11.055 16.17 10.575 16.14V17.04C11.505 17.07 12.21 17.19 12.69 17.4C13.2 17.58 13.53 17.94 13.68 18.48C13.86 18.99 13.95 19.8 13.95 20.91V28.9075C12.6926 29.2358 11.3493 29.4 9.92 29.4C8.18667 29.4 6.8 29.24 5.76 28.92C4.74667 28.6 3.88 28.2667 3.16 27.92C2.57333 27.5467 2.12 27.36 1.8 27.36C1.53333 27.36 1.33333 27.5067 1.2 27.8C1.09333 28.0933 1 28.5333 0.92 29.12H0C0.0533333 28.4533 0.08 27.68 0.08 26.8C0.106667 25.8933 0.12 24.7333 0.12 23.32C0.146667 21.9067 0.16 20.1067 0.16 17.92H1.08C1.18667 19.7333 1.48 21.4267 1.96 23C2.46667 24.5733 3.22667 25.8533 4.24 26.84C5.28 27.8 6.65333 28.28 8.36 28.28C9.32 28.28 10.16 28.12 10.88 27.8C11.6 27.48 12.1733 27.0133 12.6 26.4C13.0267 25.76 13.24 24.9867 13.24 24.08C13.24 22.96 12.9867 21.9867 12.48 21.16C11.9733 20.3333 11.28 19.56 10.4 18.84C9.52 18.0933 8.49333 17.3467 7.32 16.6C6.06667 15.7733 4.89333 14.9333 3.8 14.08C2.70667 13.2267 1.82667 12.28 1.16 11.24C0.52 10.1733 0.2 8.89333 0.2 7.4C0.2 5.69333 0.64 4.29333 1.52 3.2C2.4 2.10667 3.56 1.30667 5 0.799999C6.46667 0.266666 8.01333 0 9.64 0ZM14.985 28.5934C14.6467 28.711 14.3017 28.8157 13.95 28.9075V41.16C13.95 42.6 13.86 43.74 13.68 44.58C13.53 45.39 13.215 45.975 12.735 46.335C12.255 46.695 11.535 46.95 10.575 47.1V48C11.055 47.94 11.655 47.91 12.375 47.91C13.095 47.88 13.8 47.865 14.49 47.865C15.3 47.865 16.17 47.88 17.1 47.91C18.03 47.91 18.78 47.94 19.35 48V47.1C18.03 46.95 17.055 46.695 16.425 46.335C15.825 45.945 15.435 45.315 15.255 44.445C15.075 43.545 14.985 42.27 14.985 40.62V28.5934ZM17.8575 26.9803L14.985 23.34V28.5934C15.0167 28.5824 15.0484 28.5713 15.08 28.56C16.1469 28.1622 17.0727 27.6356 17.8575 26.9803ZM18.6943 16.7257C18.9551 17.0702 19.1903 17.4283 19.4 17.8C20.0133 18.84 20.32 20.0933 20.32 21.56C20.32 23.32 19.84 24.7867 18.88 25.96C18.571 26.3291 18.2301 26.6692 17.8575 26.9803L34.515 48.09C34.935 48.06 35.325 48.045 35.685 48.045C36.075 48.045 36.45 48.06 36.81 48.09V22.98C36.81 21.51 36.885 20.37 37.035 19.56C37.215 18.75 37.545 18.165 38.025 17.805C38.505 17.415 39.225 17.16 40.185 17.04V16.14C39.705 16.17 39.105 16.2 38.385 16.23C37.695 16.26 36.99 16.275 36.27 16.275C35.46 16.275 34.59 16.26 33.66 16.23C32.73 16.2 31.98 16.17 31.41 16.14V17.04C32.73 17.16 33.69 17.415 34.29 17.805C34.92 18.195 35.325 18.84 35.505 19.74C35.685 20.61 35.775 21.87 35.775 23.52V37.605L19.4411 17.4725L18.6943 16.7257ZM18.2218 16.1482C18.2217 16.148 18.2215 16.1478 18.2213 16.1476L18.2225 16.1475L18.2218 16.1482Z" fill="black"/>
</svg>
